<svg width="27" height="26" viewBox="0 0 27 26" fill="none" xmlns="http://www.w3.org/2000/svg">
<path d="M24.4375 11.25H15.3125V2.5C15.3125 2.0325 15.119 1.58632 14.778 1.25899C14.4374 0.931998 13.9775 0.75 13.5 0.75C13.0225 0.75 12.5626 0.931998 12.222 1.25899C11.881 1.58632 11.6875 2.0325 11.6875 2.5V11.25H2.5625C2.08501 11.25 1.62513 11.432 1.28451 11.759C0.943546 12.0863 0.75 12.5325 0.75 13C0.75 13.4675 0.943546 13.9137 1.28451 14.241C1.62513 14.568 2.08501 14.75 2.5625 14.75H11.6875V23.5C11.6875 23.9675 11.881 24.4137 12.222 24.741C12.5626 25.068 13.0225 25.25 13.5 25.25C13.9775 25.25 14.4374 25.068 14.778 24.741C15.119 24.4137 15.3125 23.9675 15.3125 23.5V14.75H24.4375C24.915 14.75 25.3749 14.568 25.7155 14.241C26.0565 13.9137 26.25 13.4675 26.25 13C26.25 12.5325 26.0565 12.0863 25.7155 11.759C25.3749 11.432 24.915 11.25 24.4375 11.25Z" fill="white" stroke="#181818" stroke-width="0.5"/>
</svg>
