<svg width="29" height="29" viewBox="0 0 29 29" fill="none" xmlns="http://www.w3.org/2000/svg">
<path d="M5.54939 29C7.27558 29 10.8047 27.1174 13.4003 25.1102C22.3126 25.3733 29 19.8363 29 12.5828C29 5.62004 22.5556 0 14.5001 0C6.44445 0 0 5.62004 0 12.5828C0 17.1231 2.68519 21.1512 6.72575 23.1723C6.15036 24.3766 5.07628 26.01 4.50089 26.8267C3.8232 27.7956 4.23237 29 5.54939 29ZM6.89199 26.7022C6.78969 26.7436 6.75133 26.6606 6.81526 26.5637C7.53131 25.6086 8.55424 24.1689 8.98898 23.283C9.34702 22.5633 9.25751 21.9265 8.43917 21.5112C4.42417 19.4902 2.12257 16.2649 2.12257 12.5828C2.12257 6.9074 7.60804 2.284 14.5001 2.284C21.4048 2.284 26.8902 6.9074 26.8902 12.5828C26.8902 18.2444 21.4048 22.8678 14.5001 22.8678C14.2443 22.8678 13.8479 22.854 13.3365 22.84C12.7994 22.84 12.3903 23.0201 11.9044 23.4353C10.3316 24.6673 8.05556 26.19 6.89199 26.7022Z" fill="url(#paint0_linear_94_427)"/>
<defs>
<linearGradient id="paint0_linear_94_427" x1="14.5" y1="0" x2="14.5" y2="29" gradientUnits="userSpaceOnUse">
<stop stop-color="#A2E4E6"/>
<stop offset="1" stop-color="#B66CFF"/>
</linearGradient>
</defs>
</svg>
