<svg width="43" height="45" viewBox="0 0 43 45" fill="none" xmlns="http://www.w3.org/2000/svg">
<g filter="url(#filter0_d_94_281)">
<rect width="4.59617" height="13.7885" rx="2.29809" transform="matrix(0.70711 0.707103 -0.70711 0.707103 35.1509 23.4004)" fill="url(#paint0_linear_94_281)"/>
<rect width="4.59617" height="13.7885" rx="2.29809" transform="matrix(0.70711 0.707103 -0.70711 0.707103 14.3506 2.60059)" fill="url(#paint1_linear_94_281)"/>
<rect width="2.7577" height="9.19234" rx="1.37885" transform="matrix(0.70711 0.707103 -0.70711 0.707103 10.1255 1.62561)" fill="url(#paint2_linear_94_281)"/>
<rect width="2.7577" height="9.19234" rx="1.37885" transform="matrix(0.70711 0.707103 -0.70711 0.707103 37.4258 28.9254)" fill="url(#paint3_linear_94_281)"/>
<rect width="22.9809" height="3.21732" rx="1.60866" transform="matrix(0.70711 0.707103 -0.70711 0.707103 14.5454 10.2056)" fill="url(#paint4_linear_94_281)"/>
</g>
<g filter="url(#filter1_d_94_281)">
<rect width="4.59617" height="13.7885" rx="2.29809" transform="matrix(0.70711 -0.707103 0.70711 0.707103 25.3999 5.85034)" fill="url(#paint5_linear_94_281)"/>
<rect width="4.59617" height="13.7885" rx="2.29809" transform="matrix(0.70711 -0.707103 0.70711 0.707103 4.60059 26.6501)" fill="url(#paint6_linear_94_281)"/>
<rect width="2.7577" height="9.19234" rx="1.37885" transform="matrix(0.70711 -0.707103 0.70711 0.707103 3.62549 30.8751)" fill="url(#paint7_linear_94_281)"/>
<rect width="2.7577" height="9.19234" rx="1.37885" transform="matrix(0.70711 -0.707103 0.70711 0.707103 30.9258 3.57544)" fill="url(#paint8_linear_94_281)"/>
<rect width="9.19234" height="3.21732" rx="1.60866" transform="matrix(0.70711 -0.707103 0.70711 0.707103 12.2051 26.4552)" fill="url(#paint9_linear_94_281)"/>
<rect width="9.19234" height="3.21732" rx="1.60866" transform="matrix(0.70711 -0.707103 0.70711 0.707103 22.0522 16.5321)" fill="url(#paint10_linear_94_281)"/>
</g>
<defs>
<filter id="filter0_d_94_281" x="0.196777" y="2.19678" width="42.6079" height="42.6074" filterUnits="userSpaceOnUse" color-interpolation-filters="sRGB">
<feFlood flood-opacity="0" result="BackgroundImageFix"/>
<feColorMatrix in="SourceAlpha" type="matrix" values="0 0 0 0 0 0 0 0 0 0 0 0 0 0 0 0 0 0 127 0" result="hardAlpha"/>
<feOffset dy="4"/>
<feGaussianBlur stdDeviation="2"/>
<feComposite in2="hardAlpha" operator="out"/>
<feColorMatrix type="matrix" values="0 0 0 0 0 0 0 0 0 0 0 0 0 0 0 0 0 0 0.25 0"/>
<feBlend mode="normal" in2="BackgroundImageFix" result="effect1_dropShadow_94_281"/>
<feBlend mode="normal" in="SourceGraphic" in2="effect1_dropShadow_94_281" result="shape"/>
</filter>
<filter id="filter1_d_94_281" x="0.196777" y="2.19666" width="42.6079" height="42.6073" filterUnits="userSpaceOnUse" color-interpolation-filters="sRGB">
<feFlood flood-opacity="0" result="BackgroundImageFix"/>
<feColorMatrix in="SourceAlpha" type="matrix" values="0 0 0 0 0 0 0 0 0 0 0 0 0 0 0 0 0 0 127 0" result="hardAlpha"/>
<feOffset dy="4"/>
<feGaussianBlur stdDeviation="2"/>
<feComposite in2="hardAlpha" operator="out"/>
<feColorMatrix type="matrix" values="0 0 0 0 0 0 0 0 0 0 0 0 0 0 0 0 0 0 0.25 0"/>
<feBlend mode="normal" in2="BackgroundImageFix" result="effect1_dropShadow_94_281"/>
<feBlend mode="normal" in="SourceGraphic" in2="effect1_dropShadow_94_281" result="shape"/>
</filter>
<linearGradient id="paint0_linear_94_281" x1="2.29809" y1="0" x2="2.29809" y2="13.7885" gradientUnits="userSpaceOnUse">
<stop stop-color="#B66CFF"/>
<stop offset="1" stop-color="#A2E4E6"/>
</linearGradient>
<linearGradient id="paint1_linear_94_281" x1="2.29809" y1="0" x2="2.29809" y2="13.7885" gradientUnits="userSpaceOnUse">
<stop stop-color="#B66CFF"/>
<stop offset="1" stop-color="#A2E4E6"/>
</linearGradient>
<linearGradient id="paint2_linear_94_281" x1="1.37885" y1="0" x2="1.37885" y2="9.19234" gradientUnits="userSpaceOnUse">
<stop stop-color="#B66CFF"/>
<stop offset="1" stop-color="#A2E4E6"/>
</linearGradient>
<linearGradient id="paint3_linear_94_281" x1="1.37885" y1="0" x2="1.37885" y2="9.19234" gradientUnits="userSpaceOnUse">
<stop stop-color="#B66CFF"/>
<stop offset="1" stop-color="#A2E4E6"/>
</linearGradient>
<linearGradient id="paint4_linear_94_281" x1="11.4904" y1="0" x2="11.4904" y2="3.21732" gradientUnits="userSpaceOnUse">
<stop stop-color="#B66CFF"/>
<stop offset="1" stop-color="#A2E4E6"/>
</linearGradient>
<linearGradient id="paint5_linear_94_281" x1="2.29809" y1="0" x2="2.29809" y2="13.7885" gradientUnits="userSpaceOnUse">
<stop stop-color="#B66CFF"/>
<stop offset="1" stop-color="#A2E4E6"/>
</linearGradient>
<linearGradient id="paint6_linear_94_281" x1="2.29809" y1="0" x2="2.29809" y2="13.7885" gradientUnits="userSpaceOnUse">
<stop stop-color="#B66CFF"/>
<stop offset="1" stop-color="#A2E4E6"/>
</linearGradient>
<linearGradient id="paint7_linear_94_281" x1="1.37885" y1="0" x2="1.37885" y2="9.19234" gradientUnits="userSpaceOnUse">
<stop stop-color="#B66CFF"/>
<stop offset="1" stop-color="#A2E4E6"/>
</linearGradient>
<linearGradient id="paint8_linear_94_281" x1="1.37885" y1="0" x2="1.37885" y2="9.19234" gradientUnits="userSpaceOnUse">
<stop stop-color="#B66CFF"/>
<stop offset="1" stop-color="#A2E4E6"/>
</linearGradient>
<linearGradient id="paint9_linear_94_281" x1="4.59617" y1="0" x2="4.59617" y2="3.21732" gradientUnits="userSpaceOnUse">
<stop stop-color="#B66CFF"/>
<stop offset="1" stop-color="#A2E4E6"/>
</linearGradient>
<linearGradient id="paint10_linear_94_281" x1="4.59617" y1="0" x2="4.59617" y2="3.21732" gradientUnits="userSpaceOnUse">
<stop stop-color="#B66CFF"/>
<stop offset="1" stop-color="#A2E4E6"/>
</linearGradient>
</defs>
</svg>
