<svg width="43" height="44" viewBox="0 0 43 44" fill="none" xmlns="http://www.w3.org/2000/svg">
<g filter="url(#filter0_d_121_1502)">
<path d="M21.9728 21.0647C21.5728 21.5496 20.8299 21.5496 20.4299 21.0647L5.23045 2.63628C4.69249 1.98404 5.15644 1 6.0019 1H36.4008C37.2463 1 37.7103 1.98404 37.1723 2.63628L21.9728 21.0647Z" fill="black"/>
<path d="M17.2014 16H25.2014V31L17.2014 34V16Z" fill="black"/>
<path d="M25.7014 17.3299L37.558 2.95443C38.365 1.97606 37.669 0.5 36.4008 0.5H6.0019C4.7337 0.5 4.03778 1.97607 4.84472 2.95443L16.7014 17.3299V34V34.7215L17.3769 34.4682L25.3769 31.4682L25.7014 31.3465V31V17.3299Z" stroke="#676464"/>
</g>
<path d="M21.9728 21.0647C21.5728 21.5496 20.8299 21.5496 20.4299 21.0647L5.23045 2.63628C4.69249 1.98404 5.15644 1 6.0019 1H36.4008C37.2463 1 37.7103 1.98404 37.1723 2.63628L21.9728 21.0647Z" fill="url(#paint0_linear_121_1502)"/>
<path d="M17.2014 16H25.2014V31L17.2014 34V16Z" fill="url(#paint1_linear_121_1502)"/>
<defs>
<filter id="filter0_d_121_1502" x="-0.00195312" y="0" width="42.4067" height="43.443" filterUnits="userSpaceOnUse" color-interpolation-filters="sRGB">
<feFlood flood-opacity="0" result="BackgroundImageFix"/>
<feColorMatrix in="SourceAlpha" type="matrix" values="0 0 0 0 0 0 0 0 0 0 0 0 0 0 0 0 0 0 127 0" result="hardAlpha"/>
<feOffset dy="4"/>
<feGaussianBlur stdDeviation="2"/>
<feComposite in2="hardAlpha" operator="out"/>
<feColorMatrix type="matrix" values="0 0 0 0 0 0 0 0 0 0 0 0 0 0 0 0 0 0 0.25 0"/>
<feBlend mode="normal" in2="BackgroundImageFix" result="effect1_dropShadow_121_1502"/>
<feBlend mode="normal" in="SourceGraphic" in2="effect1_dropShadow_121_1502" result="shape"/>
</filter>
<linearGradient id="paint0_linear_121_1502" x1="21.2014" y1="1" x2="21.2014" y2="34" gradientUnits="userSpaceOnUse">
<stop stop-color="#B66CFF"/>
<stop offset="1" stop-color="#A2E4E6"/>
</linearGradient>
<linearGradient id="paint1_linear_121_1502" x1="21.2014" y1="1" x2="21.2014" y2="34" gradientUnits="userSpaceOnUse">
<stop stop-color="#B66CFF"/>
<stop offset="1" stop-color="#A2E4E6"/>
</linearGradient>
</defs>
</svg>
