<svg width="50" height="50" viewBox="0 0 50 50" fill="none" xmlns="http://www.w3.org/2000/svg">
<g id="HEART" filter="url(#filter0_d_69_205)">
<g id="Vector" filter="url(#filter1_d_69_205)">
<path d="M23.5 40C23.2829 40.0013 23.0676 39.9568 22.8666 39.869C22.6656 39.7812 22.4828 39.6517 22.3287 39.4882L9.50987 25.7584C7.90193 24.0204 7 21.674 7 19.2288C7 16.7836 7.90193 14.4372 9.50987 12.6992C11.1304 10.9707 13.3255 10 15.6141 10C17.9026 10 20.0977 10.9707 21.7182 12.6992L23.5 14.6052L25.2818 12.6992C26.9023 10.9707 29.0974 10 31.3859 10C33.6745 10 35.8696 10.9707 37.4901 12.6992C39.0981 14.4372 40 16.7836 40 19.2288C40 21.674 39.0981 24.0204 37.4901 25.7584L24.6713 39.4882C24.5172 39.6517 24.3344 39.7812 24.1334 39.869C23.9324 39.9568 23.7171 40.0013 23.5 40Z" fill="url(#paint0_linear_69_205)"/>
<path d="M23.5031 39.5V39.4999L23.4969 39.5C23.3505 39.5009 23.2044 39.4709 23.0668 39.4108C22.9295 39.3508 22.8022 39.2614 22.6933 39.1461C22.693 39.1458 22.6928 39.1455 22.6925 39.1453L9.87689 25.4189C9.87661 25.4186 9.87634 25.4183 9.87607 25.418C8.35718 23.7758 7.5 21.5523 7.5 19.2288C7.5 16.9056 8.35706 14.6822 9.87577 13.04C11.4054 11.409 13.4697 10.5 15.6141 10.5C17.7587 10.5 19.8233 11.4093 21.353 13.0407C21.3531 13.0409 21.3533 13.041 21.3535 13.0412L23.1347 14.9466L23.5 15.3373L23.8653 14.9466L25.6465 13.0412C25.6467 13.0411 25.6468 13.0409 25.6469 13.0408C27.1766 11.4093 29.2412 10.5 31.3859 10.5C33.5303 10.5 35.5946 11.409 37.1243 13.04C38.643 14.6822 39.5 16.9056 39.5 19.2288C39.5 21.5522 38.6429 23.7757 37.1241 25.4178C37.1237 25.4182 37.1234 25.4185 37.1231 25.4189L24.3075 39.1453C24.3072 39.1456 24.3069 39.1459 24.3066 39.1462C24.1977 39.2615 24.0705 39.3508 23.9332 39.4108C23.7956 39.4709 23.6495 39.5009 23.5031 39.5Z" stroke="#1A0909"/>
</g>
</g>
<defs>
<filter id="filter0_d_69_205" x="3" y="10" width="41" height="38" filterUnits="userSpaceOnUse" color-interpolation-filters="sRGB">
<feFlood flood-opacity="0" result="BackgroundImageFix"/>
<feColorMatrix in="SourceAlpha" type="matrix" values="0 0 0 0 0 0 0 0 0 0 0 0 0 0 0 0 0 0 127 0" result="hardAlpha"/>
<feOffset dy="4"/>
<feGaussianBlur stdDeviation="2"/>
<feComposite in2="hardAlpha" operator="out"/>
<feColorMatrix type="matrix" values="0 0 0 0 0 0 0 0 0 0 0 0 0 0 0 0 0 0 0.25 0"/>
<feBlend mode="normal" in2="BackgroundImageFix" result="effect1_dropShadow_69_205"/>
<feBlend mode="normal" in="SourceGraphic" in2="effect1_dropShadow_69_205" result="shape"/>
</filter>
<filter id="filter1_d_69_205" x="3" y="10" width="41" height="38" filterUnits="userSpaceOnUse" color-interpolation-filters="sRGB">
<feFlood flood-opacity="0" result="BackgroundImageFix"/>
<feColorMatrix in="SourceAlpha" type="matrix" values="0 0 0 0 0 0 0 0 0 0 0 0 0 0 0 0 0 0 127 0" result="hardAlpha"/>
<feOffset dy="4"/>
<feGaussianBlur stdDeviation="2"/>
<feComposite in2="hardAlpha" operator="out"/>
<feColorMatrix type="matrix" values="0 0 0 0 0 0 0 0 0 0 0 0 0 0 0 0 0 0 0.25 0"/>
<feBlend mode="normal" in2="BackgroundImageFix" result="effect1_dropShadow_69_205"/>
<feBlend mode="normal" in="SourceGraphic" in2="effect1_dropShadow_69_205" result="shape"/>
</filter>
<linearGradient id="paint0_linear_69_205" x1="23.5" y1="10" x2="23.5" y2="40" gradientUnits="userSpaceOnUse">
<stop stop-color="#FF0000"/>
<stop offset="1" stop-color="#430404"/>
</linearGradient>
</defs>
</svg>
