<svg width="436" height="361" viewBox="0 0 436 361" fill="none" xmlns="http://www.w3.org/2000/svg">
<path d="M141.32 177.728L123.301 184.9C123.156 184.958 123.047 184.896 122.975 184.715L107.807 146.449C107.735 146.268 107.789 146.141 107.971 146.069L114.177 143.598C114.358 143.526 114.485 143.581 114.557 143.762L127.103 175.441L138.59 170.868C138.772 170.796 138.898 170.851 138.971 171.032L141.484 177.347C141.557 177.529 141.502 177.656 141.32 177.728ZM163.477 168.909L145.458 176.081C145.313 176.139 145.204 176.077 145.132 175.895L129.942 137.576C129.884 137.43 129.928 137.329 130.073 137.271L147.984 130.142C148.129 130.084 148.238 130.146 148.31 130.327L150.791 136.561C150.849 136.706 150.805 136.807 150.66 136.865L139.228 141.416L142.695 150.126L154.127 145.576C154.272 145.518 154.374 145.562 154.431 145.707L156.999 152C157.057 152.145 157.014 152.247 156.868 152.304L145.382 156.877L149.26 166.621L160.747 162.049C160.892 161.991 161.001 162.053 161.073 162.235L163.609 168.604C163.666 168.749 163.623 168.851 163.477 168.909ZM180.544 162.115L174.256 164.618C174.093 164.683 173.975 164.625 173.903 164.443L161.248 132.651L154.008 135.533C153.826 135.605 153.7 135.55 153.627 135.369L151.201 129.114C151.143 128.969 151.187 128.867 151.332 128.809L172.509 120.38C172.708 120.301 172.837 120.333 172.895 120.479L175.376 126.712C175.448 126.893 175.412 127.013 175.267 127.071L167.945 129.985L180.654 161.756C180.726 161.938 180.689 162.058 180.544 162.115ZM182.252 116.037C182.436 117.471 182.57 119.053 182.657 120.784C182.743 122.515 182.773 124.268 182.748 126.043C182.745 127.766 182.713 129.415 182.65 130.99L179.027 132.432C178.873 131.288 178.689 130.069 178.476 128.777C178.3 127.469 178.087 126.176 177.836 124.898C177.608 123.568 177.358 122.29 177.085 121.064C176.85 119.823 176.614 118.69 176.378 117.665L181.618 115.579L182.252 116.037ZM210.403 150.861C208.425 151.648 206.399 151.866 204.325 151.514C202.27 151.155 200.407 150.331 198.737 149.04C197.078 147.725 195.844 146.051 195.035 144.018L194.017 141.46C193.937 141.26 193.988 141.124 194.17 141.052L200.43 138.56C200.576 138.502 200.688 138.573 200.767 138.773L201.786 141.331C202.27 142.547 203.097 143.437 204.267 144.001C205.431 144.547 206.584 144.593 207.727 144.138C208.889 143.675 209.701 142.837 210.163 141.623C210.619 140.39 210.612 139.185 210.142 138.005C209.6 136.644 208.238 135.809 206.055 135.501C205.693 135.435 205.225 135.369 204.652 135.303C204.09 135.211 203.423 135.119 202.651 135.027C201.878 134.935 201.128 134.845 200.399 134.757C199.663 134.651 198.952 134.555 198.267 134.47C195.757 134.082 193.646 133.188 191.933 131.789C190.231 130.364 188.932 128.527 188.036 126.276C187.213 124.208 186.977 122.136 187.329 120.062C187.688 118.007 188.492 116.173 189.743 114.561C191.004 112.924 192.596 111.722 194.52 110.957C196.498 110.169 198.508 109.937 200.549 110.26C202.598 110.6 204.44 111.401 206.078 112.663C207.733 113.917 208.969 115.569 209.785 117.62L211.605 122.193C211.663 122.338 211.619 122.439 211.474 122.497L205.214 124.989C205.068 125.047 204.967 125.003 204.909 124.858L203.035 120.307C202.514 119 201.684 118.101 200.542 117.609C199.4 117.118 198.267 117.096 197.142 117.544C195.999 117.999 195.192 118.824 194.722 120.02C194.252 121.217 194.256 122.413 194.732 123.611C195.216 124.827 195.875 125.742 196.708 126.356C197.559 126.963 198.823 127.365 200.498 127.56C200.672 127.574 201.08 127.622 201.722 127.703C202.364 127.784 203.074 127.88 203.854 127.99C204.644 128.074 205.361 128.157 206.002 128.238C206.637 128.301 207.02 128.338 207.15 128.349C209.413 128.646 211.379 129.335 213.049 130.415C214.738 131.488 216.019 133.122 216.893 135.318C217.738 137.441 218.006 139.542 217.698 141.619C217.372 143.704 216.578 145.565 215.317 147.202C214.055 148.84 212.418 150.059 210.403 150.861ZM249.899 135.14C247.885 135.942 245.872 136.165 243.859 135.81C241.829 135.462 239.979 134.643 238.309 133.352C236.657 132.055 235.416 130.362 234.586 128.276L227.554 110.61C226.745 108.578 226.507 106.528 226.841 104.461C227.149 102.384 227.93 100.517 229.184 98.8616C230.431 97.1881 232.034 95.9614 233.994 95.1813C236.045 94.3651 238.091 94.1183 240.132 94.4409C242.181 94.7817 244.018 95.5954 245.645 96.882C247.289 98.1615 248.526 99.8446 249.357 101.931L250.376 104.49C250.433 104.635 250.372 104.744 250.19 104.816L243.929 107.308C243.784 107.366 243.683 107.322 243.625 107.177L242.78 105.054C242.217 103.639 241.351 102.627 240.185 102.019C239.018 101.412 237.836 101.346 236.638 101.823C235.567 102.249 234.792 103.073 234.311 104.294C233.83 105.516 233.828 106.725 234.305 107.923L241.336 125.589C241.82 126.804 242.647 127.694 243.818 128.259C244.981 128.805 246.116 128.857 247.223 128.417C248.421 127.94 249.249 127.116 249.708 125.946C250.16 124.757 250.137 123.536 249.638 122.284L248.544 119.535L244.651 121.084C244.452 121.164 244.316 121.113 244.244 120.931L241.763 114.698C241.69 114.516 241.754 114.386 241.954 114.307L252.379 110.157C252.524 110.099 252.633 110.161 252.705 110.342L256.389 119.597C257.219 121.684 257.481 123.766 257.172 125.844C256.846 127.929 256.065 129.795 254.829 131.443C253.593 133.092 251.95 134.324 249.899 135.14ZM275.105 125.107C273.127 125.895 271.101 126.112 269.027 125.761C266.971 125.402 265.099 124.581 263.411 123.298C261.734 121.989 260.491 120.319 259.682 118.286L252.705 100.599C251.882 98.5301 251.64 96.4715 251.981 94.4229C252.297 92.3633 253.09 90.5023 254.363 88.8397C255.628 87.159 257.24 85.9286 259.2 85.1485C261.232 84.3395 263.255 84.1126 265.267 84.4678C267.297 84.8158 269.138 85.6386 270.79 86.9362C272.453 88.2084 273.692 89.8698 274.508 91.9204L281.594 109.564C282.403 111.597 282.654 113.652 282.346 115.73C282.026 117.833 281.243 119.721 279.997 121.394C278.75 123.068 277.119 124.305 275.105 125.107ZM272.429 118.384C273.554 117.936 274.353 117.092 274.827 115.853C275.293 114.595 275.299 113.395 274.844 112.251L267.758 94.6073C267.267 93.3734 266.461 92.4852 265.341 91.9429C264.222 91.4006 263.063 91.3678 261.865 91.8446C260.722 92.2996 259.908 93.107 259.424 94.2668C258.939 95.4266 258.95 96.6416 259.456 97.9119L266.487 115.578C266.971 116.793 267.798 117.683 268.969 118.247C270.132 118.793 271.286 118.839 272.429 118.384ZM312.994 97.5074L306.815 99.9668C306.616 100.046 306.487 100.013 306.429 99.8683L305.227 96.8469C304.634 95.3589 304.387 93.7336 304.484 91.9711C304.574 90.1905 304.98 88.4629 305.701 86.7886C306.039 86.0021 306.325 85.3207 306.558 84.7445C306.802 84.1428 306.99 83.6372 307.121 83.2276C307.402 82.4011 307.514 81.7049 307.457 81.1391C307.392 80.555 307.219 79.9091 306.938 79.2014C306.418 77.8949 305.594 76.9614 304.467 76.4009C303.34 75.8405 302.178 75.7986 300.98 76.2753C299.801 76.7448 298.985 77.574 298.533 78.7629C298.081 79.9517 298.116 81.1994 298.636 82.506L300.25 86.5617C300.308 86.7069 300.264 86.8084 300.119 86.8662L293.804 89.3798C293.659 89.4375 293.557 89.3939 293.499 89.2487L291.885 85.1929C291.054 83.1061 290.799 81.0111 291.118 78.9081C291.419 76.8123 292.196 74.9367 293.45 73.2813C294.697 71.6078 296.319 70.3738 298.315 69.5793C300.329 68.7775 302.36 68.547 304.409 68.8878C306.458 69.2285 308.306 70.0695 309.954 71.4106C311.613 72.7263 312.858 74.4276 313.688 76.5145C314.158 77.694 314.46 78.8243 314.596 79.9053C314.7 80.9573 314.604 82.1413 314.307 83.4573C314.004 84.7552 313.466 86.4408 312.694 88.5141C312.144 89.8261 311.818 90.9335 311.715 91.8365C311.63 92.7321 311.764 93.6246 312.118 94.5138L313.18 97.1813C313.238 97.3265 313.176 97.4352 312.994 97.5074ZM317.079 107.769L310.9 110.229C310.7 110.308 310.565 110.257 310.492 110.076L308.022 103.87C307.964 103.724 308.035 103.612 308.235 103.533L314.414 101.073C314.595 101.001 314.715 101.037 314.773 101.183L317.243 107.389C317.315 107.57 317.26 107.697 317.079 107.769Z" fill="white" fill-opacity="0.7"/>
<path d="M141.32 223.728L123.301 230.9C123.156 230.958 123.047 230.896 122.975 230.715L107.807 192.449C107.735 192.268 107.789 192.141 107.971 192.069L114.177 189.598C114.358 189.526 114.485 189.581 114.557 189.762L127.103 221.441L138.59 216.868C138.772 216.796 138.898 216.851 138.971 217.032L141.484 223.347C141.557 223.529 141.502 223.656 141.32 223.728ZM163.477 214.909L145.458 222.081C145.313 222.139 145.204 222.077 145.132 221.895L129.942 183.576C129.884 183.43 129.928 183.329 130.073 183.271L147.984 176.142C148.129 176.084 148.238 176.146 148.31 176.327L150.791 182.561C150.849 182.706 150.805 182.807 150.66 182.865L139.228 187.416L142.695 196.126L154.127 191.576C154.272 191.518 154.374 191.562 154.431 191.707L156.999 198C157.057 198.145 157.014 198.247 156.868 198.304L145.382 202.877L149.26 212.621L160.747 208.049C160.892 207.991 161.001 208.053 161.073 208.235L163.609 214.604C163.666 214.749 163.623 214.851 163.477 214.909ZM180.544 208.115L174.256 210.618C174.093 210.683 173.975 210.625 173.903 210.443L161.248 178.651L154.008 181.533C153.826 181.605 153.7 181.55 153.627 181.369L151.201 175.114C151.143 174.969 151.187 174.867 151.332 174.809L172.509 166.38C172.708 166.301 172.837 166.333 172.895 166.479L175.376 172.712C175.448 172.893 175.412 173.013 175.267 173.071L167.945 175.985L180.654 207.756C180.726 207.938 180.689 208.058 180.544 208.115ZM182.252 162.037C182.436 163.471 182.57 165.053 182.657 166.784C182.743 168.515 182.773 170.268 182.748 172.043C182.745 173.766 182.713 175.415 182.65 176.99L179.027 178.432C178.873 177.288 178.689 176.069 178.476 174.777C178.3 173.469 178.087 172.176 177.836 170.898C177.608 169.568 177.358 168.29 177.085 167.064C176.85 165.823 176.614 164.69 176.378 163.665L181.618 161.579L182.252 162.037ZM210.403 196.861C208.425 197.648 206.399 197.866 204.325 197.514C202.27 197.155 200.407 196.331 198.737 195.04C197.078 193.725 195.844 192.051 195.035 190.018L194.017 187.46C193.937 187.26 193.988 187.124 194.17 187.052L200.43 184.56C200.576 184.502 200.688 184.573 200.767 184.773L201.786 187.331C202.27 188.547 203.097 189.437 204.267 190.001C205.431 190.547 206.584 190.593 207.727 190.138C208.889 189.675 209.701 188.837 210.163 187.623C210.619 186.39 210.612 185.185 210.142 184.005C209.6 182.644 208.238 181.809 206.055 181.501C205.693 181.435 205.225 181.369 204.652 181.303C204.09 181.211 203.423 181.119 202.651 181.027C201.878 180.935 201.128 180.845 200.399 180.757C199.663 180.651 198.952 180.555 198.267 180.47C195.757 180.082 193.646 179.188 191.933 177.789C190.231 176.364 188.932 174.527 188.036 172.276C187.213 170.208 186.977 168.136 187.329 166.062C187.688 164.007 188.492 162.173 189.743 160.561C191.004 158.924 192.596 157.722 194.52 156.957C196.498 156.169 198.508 155.937 200.549 156.26C202.598 156.6 204.44 157.401 206.078 158.663C207.733 159.917 208.969 161.569 209.785 163.62L211.605 168.193C211.663 168.338 211.619 168.439 211.474 168.497L205.214 170.989C205.068 171.047 204.967 171.003 204.909 170.858L203.035 166.307C202.514 165 201.684 164.101 200.542 163.609C199.4 163.118 198.267 163.096 197.142 163.544C195.999 163.999 195.192 164.824 194.722 166.02C194.252 167.217 194.256 168.413 194.732 169.611C195.216 170.827 195.875 171.742 196.708 172.356C197.559 172.963 198.823 173.365 200.498 173.56C200.672 173.574 201.08 173.622 201.722 173.703C202.364 173.784 203.074 173.88 203.854 173.99C204.644 174.074 205.361 174.157 206.002 174.238C206.637 174.301 207.02 174.338 207.15 174.349C209.413 174.646 211.379 175.335 213.049 176.415C214.738 177.488 216.019 179.122 216.893 181.318C217.738 183.441 218.006 185.542 217.698 187.619C217.372 189.704 216.578 191.565 215.317 193.202C214.055 194.84 212.418 196.059 210.403 196.861ZM249.899 181.14C247.885 181.942 245.872 182.165 243.859 181.81C241.829 181.462 239.979 180.643 238.309 179.352C236.657 178.055 235.416 176.362 234.586 174.276L227.554 156.61C226.745 154.578 226.507 152.528 226.841 150.461C227.149 148.384 227.93 146.517 229.184 144.862C230.431 143.188 232.034 141.961 233.994 141.181C236.045 140.365 238.091 140.118 240.132 140.441C242.181 140.782 244.018 141.595 245.645 142.882C247.289 144.161 248.526 145.845 249.357 147.931L250.376 150.49C250.433 150.635 250.372 150.744 250.19 150.816L243.929 153.308C243.784 153.366 243.683 153.322 243.625 153.177L242.78 151.054C242.217 149.639 241.351 148.627 240.185 148.019C239.018 147.412 237.836 147.346 236.638 147.823C235.567 148.249 234.792 149.073 234.311 150.294C233.83 151.516 233.828 152.725 234.305 153.923L241.336 171.589C241.82 172.804 242.647 173.694 243.818 174.259C244.981 174.805 246.116 174.857 247.223 174.417C248.421 173.94 249.249 173.116 249.708 171.946C250.16 170.757 250.137 169.536 249.638 168.284L248.544 165.535L244.651 167.084C244.452 167.164 244.316 167.113 244.244 166.931L241.763 160.698C241.69 160.516 241.754 160.386 241.954 160.307L252.379 156.157C252.524 156.099 252.633 156.161 252.705 156.342L256.389 165.597C257.219 167.684 257.481 169.766 257.172 171.844C256.846 173.929 256.065 175.795 254.829 177.443C253.593 179.092 251.95 180.324 249.899 181.14ZM275.105 171.107C273.127 171.895 271.101 172.112 269.027 171.761C266.971 171.402 265.099 170.581 263.411 169.298C261.734 167.989 260.491 166.319 259.682 164.286L252.705 146.599C251.882 144.53 251.64 142.471 251.981 140.423C252.297 138.363 253.09 136.502 254.363 134.84C255.628 133.159 257.24 131.929 259.2 131.148C261.232 130.34 263.255 130.113 265.267 130.468C267.297 130.816 269.138 131.639 270.79 132.936C272.453 134.208 273.692 135.87 274.508 137.92L281.594 155.564C282.403 157.597 282.654 159.652 282.346 161.73C282.026 163.833 281.243 165.721 279.997 167.394C278.75 169.068 277.119 170.305 275.105 171.107ZM272.429 164.384C273.554 163.936 274.353 163.092 274.827 161.853C275.293 160.595 275.299 159.395 274.844 158.251L267.758 140.607C267.267 139.373 266.461 138.485 265.341 137.943C264.222 137.401 263.063 137.368 261.865 137.845C260.722 138.3 259.908 139.107 259.424 140.267C258.939 141.427 258.95 142.642 259.456 143.912L266.487 161.578C266.971 162.793 267.798 163.683 268.969 164.247C270.132 164.793 271.286 164.839 272.429 164.384ZM312.994 143.507L306.815 145.967C306.616 146.046 306.487 146.013 306.429 145.868L305.227 142.847C304.634 141.359 304.387 139.734 304.484 137.971C304.574 136.19 304.98 134.463 305.701 132.789C306.039 132.002 306.325 131.321 306.558 130.744C306.802 130.143 306.99 129.637 307.121 129.228C307.402 128.401 307.514 127.705 307.457 127.139C307.392 126.555 307.219 125.909 306.938 125.201C306.418 123.895 305.594 122.961 304.467 122.401C303.34 121.84 302.178 121.799 300.98 122.275C299.801 122.745 298.985 123.574 298.533 124.763C298.081 125.952 298.116 127.199 298.636 128.506L300.25 132.562C300.308 132.707 300.264 132.808 300.119 132.866L293.804 135.38C293.659 135.438 293.557 135.394 293.499 135.249L291.885 131.193C291.054 129.106 290.799 127.011 291.118 124.908C291.419 122.812 292.196 120.937 293.45 119.281C294.697 117.608 296.319 116.374 298.315 115.579C300.329 114.778 302.36 114.547 304.409 114.888C306.458 115.229 308.306 116.069 309.954 117.411C311.613 118.726 312.858 120.428 313.688 122.514C314.158 123.694 314.46 124.824 314.596 125.905C314.7 126.957 314.604 128.141 314.307 129.457C314.004 130.755 313.466 132.441 312.694 134.514C312.144 135.826 311.818 136.934 311.715 137.836C311.63 138.732 311.764 139.625 312.118 140.514L313.18 143.181C313.238 143.326 313.176 143.435 312.994 143.507ZM317.079 153.769L310.9 156.229C310.7 156.308 310.565 156.257 310.492 156.076L308.022 149.87C307.964 149.724 308.035 149.612 308.235 149.533L314.414 147.073C314.595 147.001 314.715 147.037 314.773 147.183L317.243 153.389C317.315 153.57 317.26 153.697 317.079 153.769Z" fill="white" fill-opacity="0.5"/>
<path d="M138.32 270.728L120.301 277.9C120.156 277.958 120.047 277.896 119.975 277.715L104.807 239.449C104.735 239.268 104.789 239.141 104.971 239.069L111.177 236.598C111.358 236.526 111.485 236.581 111.557 236.762L124.103 268.441L135.59 263.868C135.772 263.796 135.898 263.851 135.971 264.032L138.484 270.347C138.557 270.529 138.502 270.656 138.32 270.728ZM160.477 261.909L142.458 269.081C142.313 269.139 142.204 269.077 142.132 268.895L126.942 230.576C126.884 230.43 126.928 230.329 127.073 230.271L144.984 223.142C145.129 223.084 145.238 223.146 145.31 223.327L147.791 229.561C147.849 229.706 147.805 229.807 147.66 229.865L136.228 234.416L139.695 243.126L151.127 238.576C151.272 238.518 151.374 238.562 151.431 238.707L153.999 245C154.057 245.145 154.014 245.247 153.868 245.304L142.382 249.877L146.26 259.621L157.747 255.049C157.892 254.991 158.001 255.053 158.073 255.235L160.609 261.604C160.666 261.749 160.623 261.851 160.477 261.909ZM177.544 255.115L171.256 257.618C171.093 257.683 170.975 257.625 170.903 257.443L158.248 225.651L151.008 228.533C150.826 228.605 150.7 228.55 150.627 228.369L148.201 222.114C148.143 221.969 148.187 221.867 148.332 221.809L169.509 213.38C169.708 213.301 169.837 213.333 169.895 213.479L172.376 219.712C172.448 219.893 172.412 220.013 172.267 220.071L164.945 222.985L177.654 254.756C177.726 254.938 177.689 255.058 177.544 255.115ZM179.252 209.037C179.436 210.471 179.57 212.053 179.657 213.784C179.743 215.515 179.773 217.268 179.748 219.043C179.745 220.766 179.713 222.415 179.65 223.99L176.027 225.432C175.873 224.288 175.689 223.069 175.476 221.777C175.3 220.469 175.087 219.176 174.836 217.898C174.608 216.568 174.358 215.29 174.085 214.064C173.85 212.823 173.614 211.69 173.378 210.665L178.618 208.579L179.252 209.037ZM207.403 243.861C205.425 244.648 203.399 244.866 201.325 244.514C199.27 244.155 197.407 243.331 195.737 242.04C194.078 240.725 192.844 239.051 192.035 237.018L191.017 234.46C190.937 234.26 190.988 234.124 191.17 234.052L197.43 231.56C197.576 231.502 197.688 231.573 197.767 231.773L198.786 234.331C199.27 235.547 200.097 236.437 201.267 237.001C202.431 237.547 203.584 237.593 204.727 237.138C205.889 236.675 206.701 235.837 207.163 234.623C207.619 233.39 207.612 232.185 207.142 231.005C206.6 229.644 205.238 228.809 203.055 228.501C202.693 228.435 202.225 228.369 201.652 228.303C201.09 228.211 200.423 228.119 199.651 228.027C198.878 227.935 198.128 227.845 197.399 227.757C196.663 227.651 195.952 227.555 195.267 227.47C192.757 227.082 190.646 226.188 188.933 224.789C187.231 223.364 185.932 221.527 185.036 219.276C184.213 217.208 183.977 215.136 184.329 213.062C184.688 211.007 185.492 209.173 186.743 207.561C188.004 205.924 189.596 204.722 191.52 203.957C193.498 203.169 195.508 202.937 197.549 203.26C199.598 203.6 201.44 204.401 203.078 205.663C204.733 206.917 205.969 208.569 206.785 210.62L208.605 215.193C208.663 215.338 208.619 215.439 208.474 215.497L202.214 217.989C202.068 218.047 201.967 218.003 201.909 217.858L200.035 213.307C199.514 212 198.684 211.101 197.542 210.609C196.4 210.118 195.267 210.096 194.142 210.544C192.999 210.999 192.192 211.824 191.722 213.02C191.252 214.217 191.256 215.413 191.732 216.611C192.216 217.827 192.875 218.742 193.708 219.356C194.559 219.963 195.823 220.365 197.498 220.56C197.672 220.574 198.08 220.622 198.722 220.703C199.364 220.784 200.074 220.88 200.854 220.99C201.644 221.074 202.361 221.157 203.002 221.238C203.637 221.301 204.02 221.338 204.15 221.349C206.413 221.646 208.379 222.335 210.049 223.415C211.738 224.488 213.019 226.122 213.893 228.318C214.738 230.441 215.006 232.542 214.698 234.619C214.372 236.704 213.578 238.565 212.317 240.202C211.055 241.84 209.418 243.059 207.403 243.861ZM246.899 228.14C244.885 228.942 242.872 229.165 240.859 228.81C238.829 228.462 236.979 227.643 235.309 226.352C233.657 225.055 232.416 223.362 231.586 221.276L224.554 203.61C223.745 201.578 223.507 199.528 223.841 197.461C224.149 195.384 224.93 193.517 226.184 191.862C227.431 190.188 229.034 188.961 230.994 188.181C233.045 187.365 235.091 187.118 237.132 187.441C239.181 187.782 241.018 188.595 242.645 189.882C244.289 191.161 245.526 192.845 246.357 194.931L247.376 197.49C247.433 197.635 247.372 197.744 247.19 197.816L240.929 200.308C240.784 200.366 240.683 200.322 240.625 200.177L239.78 198.054C239.217 196.639 238.351 195.627 237.185 195.019C236.018 194.412 234.836 194.346 233.638 194.823C232.567 195.249 231.792 196.073 231.311 197.294C230.83 198.516 230.828 199.725 231.305 200.923L238.336 218.589C238.82 219.804 239.647 220.694 240.818 221.259C241.981 221.805 243.116 221.857 244.223 221.417C245.421 220.94 246.249 220.116 246.708 218.946C247.16 217.757 247.137 216.536 246.638 215.284L245.544 212.535L241.651 214.084C241.452 214.164 241.316 214.113 241.244 213.931L238.763 207.698C238.69 207.516 238.754 207.386 238.954 207.307L249.379 203.157C249.524 203.099 249.633 203.161 249.705 203.342L253.389 212.597C254.219 214.684 254.481 216.766 254.172 218.844C253.846 220.929 253.065 222.795 251.829 224.443C250.593 226.092 248.95 227.324 246.899 228.14ZM272.105 218.107C270.127 218.895 268.101 219.112 266.027 218.761C263.971 218.402 262.099 217.581 260.411 216.298C258.734 214.989 257.491 213.319 256.682 211.286L249.705 193.599C248.882 191.53 248.64 189.471 248.981 187.423C249.297 185.363 250.09 183.502 251.363 181.84C252.628 180.159 254.24 178.929 256.2 178.148C258.232 177.34 260.255 177.113 262.267 177.468C264.297 177.816 266.138 178.639 267.79 179.936C269.453 181.208 270.692 182.87 271.508 184.92L278.594 202.564C279.403 204.597 279.654 206.652 279.346 208.73C279.026 210.833 278.243 212.721 276.997 214.394C275.75 216.068 274.119 217.305 272.105 218.107ZM269.429 211.384C270.554 210.936 271.353 210.092 271.827 208.853C272.293 207.595 272.299 206.395 271.844 205.251L264.758 187.607C264.267 186.373 263.461 185.485 262.341 184.943C261.222 184.401 260.063 184.368 258.865 184.845C257.722 185.3 256.908 186.107 256.424 187.267C255.939 188.427 255.95 189.642 256.456 190.912L263.487 208.578C263.971 209.793 264.798 210.683 265.969 211.247C267.132 211.793 268.286 211.839 269.429 211.384ZM309.994 190.507L303.815 192.967C303.616 193.046 303.487 193.013 303.429 192.868L302.227 189.847C301.634 188.359 301.387 186.734 301.484 184.971C301.574 183.19 301.98 181.463 302.701 179.789C303.039 179.002 303.325 178.321 303.558 177.744C303.802 177.143 303.99 176.637 304.121 176.228C304.402 175.401 304.514 174.705 304.457 174.139C304.392 173.555 304.219 172.909 303.938 172.201C303.418 170.895 302.594 169.961 301.467 169.401C300.34 168.84 299.178 168.799 297.98 169.275C296.801 169.745 295.985 170.574 295.533 171.763C295.081 172.952 295.116 174.199 295.636 175.506L297.25 179.562C297.308 179.707 297.264 179.808 297.119 179.866L290.804 182.38C290.659 182.438 290.557 182.394 290.499 182.249L288.885 178.193C288.054 176.106 287.799 174.011 288.118 171.908C288.419 169.812 289.196 167.937 290.45 166.281C291.697 164.608 293.319 163.374 295.315 162.579C297.329 161.778 299.36 161.547 301.409 161.888C303.458 162.229 305.306 163.069 306.954 164.411C308.613 165.726 309.858 167.428 310.688 169.514C311.158 170.694 311.46 171.824 311.596 172.905C311.7 173.957 311.604 175.141 311.307 176.457C311.004 177.755 310.466 179.441 309.694 181.514C309.144 182.826 308.818 183.934 308.715 184.836C308.63 185.732 308.764 186.625 309.118 187.514L310.18 190.181C310.238 190.326 310.176 190.435 309.994 190.507ZM314.079 200.769L307.9 203.229C307.7 203.308 307.565 203.257 307.492 203.076L305.022 196.87C304.964 196.724 305.035 196.612 305.235 196.533L311.414 194.073C311.595 194.001 311.715 194.037 311.773 194.183L314.243 200.389C314.315 200.57 314.26 200.697 314.079 200.769Z" fill="white" fill-opacity="0.3"/>
</svg>
