<svg width="41" height="38" viewBox="0 0 41 38" fill="none" xmlns="http://www.w3.org/2000/svg">
<g filter="url(#filter0_d_94_409)">
<path d="M20.5 30C20.2829 30.0013 20.0676 29.9568 19.8666 29.869C19.6656 29.7812 19.4828 29.6517 19.3287 29.4882L6.50987 15.7584C4.90193 14.0204 4 11.674 4 9.22882C4 6.78364 4.90193 4.43721 6.50987 2.69924C8.13039 0.970683 10.3255 0 12.6141 0C14.9026 0 17.0977 0.970683 18.7182 2.69924L20.5 4.60517L22.2818 2.69924C23.9023 0.970683 26.0974 0 28.3859 0C30.6745 0 32.8696 0.970683 34.4901 2.69924C36.0981 4.43721 37 6.78364 37 9.22882C37 11.674 36.0981 14.0204 34.4901 15.7584L21.6713 29.4882C21.5172 29.6517 21.3344 29.7812 21.1334 29.869C20.9324 29.9568 20.7171 30.0013 20.5 30Z" fill="url(#paint0_radial_94_409)"/>
<path d="M20.5031 29.5V29.4999L20.4969 29.5C20.3505 29.5009 20.2044 29.4709 20.0668 29.4108C19.9295 29.3508 19.8022 29.2614 19.6933 29.1461C19.693 29.1458 19.6928 29.1455 19.6925 29.1453L6.87689 15.4189C6.87661 15.4186 6.87634 15.4183 6.87607 15.418C5.35718 13.7758 4.5 11.5523 4.5 9.22882C4.5 6.90555 5.35706 4.68216 6.87577 3.04001C8.40542 1.40901 10.4697 0.5 12.6141 0.5C14.7587 0.5 16.8233 1.40927 18.353 3.0407C18.3531 3.04087 18.3533 3.04104 18.3535 3.04121L20.1347 4.94663L20.5 5.33733L20.8653 4.94663L22.6465 3.04121C22.6467 3.04107 22.6468 3.04093 22.6469 3.04079C24.1766 1.4093 26.2412 0.5 28.3859 0.5C30.5303 0.5 32.5946 1.40902 34.1243 3.04004C35.643 4.6822 36.5 6.90557 36.5 9.22882C36.5 11.5522 35.6429 13.7757 34.1241 15.4178C34.1237 15.4182 34.1234 15.4185 34.1231 15.4189L21.3075 29.1453C21.3072 29.1456 21.3069 29.1459 21.3066 29.1462C21.1977 29.2615 21.0705 29.3508 20.9332 29.4108C20.7956 29.4709 20.6495 29.5009 20.5031 29.5Z" stroke="#1A0909"/>
</g>
<defs>
<filter id="filter0_d_94_409" x="0" y="0" width="41" height="38" filterUnits="userSpaceOnUse" color-interpolation-filters="sRGB">
<feFlood flood-opacity="0" result="BackgroundImageFix"/>
<feColorMatrix in="SourceAlpha" type="matrix" values="0 0 0 0 0 0 0 0 0 0 0 0 0 0 0 0 0 0 127 0" result="hardAlpha"/>
<feOffset dy="4"/>
<feGaussianBlur stdDeviation="2"/>
<feComposite in2="hardAlpha" operator="out"/>
<feColorMatrix type="matrix" values="0 0 0 0 0 0 0 0 0 0 0 0 0 0 0 0 0 0 0.25 0"/>
<feBlend mode="normal" in2="BackgroundImageFix" result="effect1_dropShadow_94_409"/>
<feBlend mode="normal" in="SourceGraphic" in2="effect1_dropShadow_94_409" result="shape"/>
</filter>
<radialGradient id="paint0_radial_94_409" cx="0" cy="0" r="1" gradientUnits="userSpaceOnUse" gradientTransform="translate(21.5 7.5) rotate(117.699) scale(22.5887 19.5065)">
<stop stop-color="#A2E4E6"/>
<stop offset="1" stop-color="#B66CFF"/>
</radialGradient>
</defs>
</svg>
