<svg width="26" height="22" viewBox="0 0 26 22" fill="none" xmlns="http://www.w3.org/2000/svg">
<path d="M25.413 19.9036L20.6553 15.7616C22.1904 14.054 23.0233 11.9454 23.0202 9.77463C23.0202 7.84139 22.3636 5.95157 21.1336 4.34414C19.9035 2.73671 18.1552 1.48387 16.1097 0.744053C14.0642 0.00423516 11.8133 -0.189335 9.64184 0.187821C7.47034 0.564977 5.47568 1.49592 3.91012 2.86293C2.34455 4.22993 1.27839 5.9716 0.84645 7.8677C0.414511 9.76379 0.636198 11.7291 1.48348 13.5152C2.33075 15.3013 3.76557 16.8279 5.60648 17.9019C7.44739 18.976 9.61171 19.5493 11.8258 19.5493C14.3118 19.552 16.7267 18.8247 18.6823 17.4844L23.426 21.6386C23.556 21.7531 23.7108 21.844 23.8813 21.906C24.0518 21.9681 24.2347 22 24.4195 22C24.6042 22 24.7871 21.9681 24.9576 21.906C25.1281 21.844 25.2829 21.7531 25.413 21.6386C25.5441 21.525 25.6482 21.3899 25.7193 21.241C25.7903 21.0921 25.8269 20.9324 25.8269 20.7711C25.8269 20.6098 25.7903 20.4501 25.7193 20.3012C25.6482 20.1523 25.5441 20.0172 25.413 19.9036ZM3.42995 9.77463C3.42995 8.3247 3.92236 6.90733 4.8449 5.70176C5.76744 4.49619 7.07869 3.55656 8.61282 3.0017C10.147 2.44683 11.8351 2.30166 13.4637 2.58452C15.0923 2.86739 16.5883 3.5656 17.7625 4.59085C18.9367 5.61611 19.7363 6.92236 20.0602 8.34443C20.3842 9.7665 20.2179 11.2405 19.5825 12.5801C18.947 13.9196 17.8709 15.0646 16.4902 15.8701C15.1095 16.6756 13.4863 17.1056 11.8258 17.1056C9.59905 17.1056 7.46355 16.3332 5.88903 14.9584C4.31451 13.5836 3.42995 11.7189 3.42995 9.77463Z" fill="url(#paint0_linear_121_1506)"/>
<defs>
<linearGradient id="paint0_linear_121_1506" x1="13.2291" y1="0" x2="13.2291" y2="22" gradientUnits="userSpaceOnUse">
<stop stop-color="#B66CFF"/>
<stop offset="1" stop-color="#A2E4E6"/>
</linearGradient>
</defs>
</svg>
