<svg width="41" height="44" viewBox="0 0 41 44" fill="none" xmlns="http://www.w3.org/2000/svg">
<g filter="url(#filter0_d_70_211)">
<path d="M5.0596 20.6432V30.3577C5.0596 31.6996 5.59266 32.9865 6.54152 33.9354C7.49039 34.8842 8.77732 35.4173 10.1192 35.4173H30.3577C31.6996 35.4173 32.9865 34.8842 33.9354 33.9354C34.8842 32.9865 35.4173 31.6996 35.4173 30.3577V20.6432C35.4194 20.1165 35.2981 19.5967 35.0631 19.1253L5.0596 20.6432ZM27.5603 5.81342L27.2978 6.23893C28.0201 6.68467 28.6036 7.32317 28.9827 8.08257L28.9829 8.08284L34.6156 19.3484C34.6157 19.3485 34.6158 19.3487 34.6159 19.3489C34.8159 19.7503 34.9191 20.1928 34.9173 20.6412V20.6432V30.3577C34.9173 31.567 34.4369 32.7267 33.5818 33.5818C32.7267 34.4369 31.567 34.9173 30.3577 34.9173H10.1192C8.90993 34.9173 7.75017 34.4369 6.89508 33.5818C6.03998 32.7267 5.5596 31.567 5.5596 30.3577L5.5596 20.6432L5.55959 20.6412C5.55784 20.1928 5.66108 19.7501 5.86107 19.3488C5.86114 19.3486 5.8612 19.3485 5.86127 19.3484L11.494 8.08284L11.4942 8.08257C11.8733 7.32317 12.4568 6.68467 13.1791 6.23893C13.9015 5.79319 14.7338 5.55791 15.5826 5.55958H15.5836L24.8933 5.55958L24.8943 5.55958C25.7431 5.55791 26.5754 5.79319 27.2978 6.23893L27.5603 5.81342ZM13.6192 9.13527L13.6183 9.13698L9.03095 18.3286L8.66998 19.0519H9.47833H13.4923C13.807 19.0519 14.1088 19.1769 14.3313 19.3994C14.5538 19.6219 14.6788 19.9237 14.6788 20.2384V23.6115C14.6788 24.1914 14.9092 24.7476 15.3193 25.1576C15.7293 25.5677 16.2855 25.7981 16.8654 25.7981H23.6115C24.1914 25.7981 24.7476 25.5677 25.1576 25.1576C25.5677 24.7476 25.7981 24.1914 25.7981 23.6115V20.2384C25.7981 19.9237 25.9231 19.6219 26.1456 19.3994C26.3681 19.1769 26.6699 19.0519 26.9846 19.0519H30.9986H31.8069L31.446 18.3286L26.8586 9.13698L26.8577 9.13527C26.6743 8.77135 26.3929 8.46592 26.0452 8.25342C25.698 8.04125 25.2985 7.93017 24.8917 7.93266H15.5852C15.1784 7.93017 14.7789 8.04125 14.4317 8.25342C14.084 8.46592 13.8026 8.77135 13.6192 9.13527Z" fill="url(#paint0_linear_70_211)" stroke="black"/>
</g>
<defs>
<filter id="filter0_d_70_211" x="1.05957" y="5.05957" width="38.3579" height="38.3577" filterUnits="userSpaceOnUse" color-interpolation-filters="sRGB">
<feFlood flood-opacity="0" result="BackgroundImageFix"/>
<feColorMatrix in="SourceAlpha" type="matrix" values="0 0 0 0 0 0 0 0 0 0 0 0 0 0 0 0 0 0 127 0" result="hardAlpha"/>
<feOffset dy="4"/>
<feGaussianBlur stdDeviation="2"/>
<feComposite in2="hardAlpha" operator="out"/>
<feColorMatrix type="matrix" values="0 0 0 0 0 0 0 0 0 0 0 0 0 0 0 0 0 0 0.25 0"/>
<feBlend mode="normal" in2="BackgroundImageFix" result="effect1_dropShadow_70_211"/>
<feBlend mode="normal" in="SourceGraphic" in2="effect1_dropShadow_70_211" result="shape"/>
</filter>
<linearGradient id="paint0_linear_70_211" x1="20.2385" y1="5.05957" x2="20.2385" y2="35.4173" gradientUnits="userSpaceOnUse">
<stop stop-color="white"/>
<stop offset="1" stop-color="#A7A7A7" stop-opacity="0.7"/>
</linearGradient>
</defs>
</svg>
