<svg width="45" height="48" viewBox="0 0 45 48" fill="none" xmlns="http://www.w3.org/2000/svg">
<g id="Settings" filter="url(#filter0_d_72_228)">
<g id="Group">
<path id="Vector" d="M24.4618 21.7439C24.4618 22.6927 23.6927 23.4618 22.7439 23.4618C21.795 23.4618 21.0259 22.6927 21.0259 21.7439C21.0259 20.795 21.795 20.0259 22.7439 20.0259C23.6927 20.0259 24.4618 20.795 24.4618 21.7439Z" fill="url(#paint0_linear_72_228)" stroke="#363636" stroke-width="2"/>
<g id="Vector_2">
<mask id="path-2-inside-1_72_228" fill="white">
<path d="M37.8197 16.9784H35.8446C35.5909 16.9784 35.4097 16.7791 35.301 16.5073C35.2363 16.4074 35.2018 16.291 35.2018 16.1721C35.2018 16.0531 35.2363 15.9367 35.301 15.8368L36.7687 14.496C37.0564 14.2193 37.2849 13.8872 37.4407 13.5197C37.5964 13.1522 37.676 12.7569 37.6747 12.3578C37.6743 11.9563 37.594 11.5588 37.4385 11.1886C37.2829 10.8184 37.0552 10.4829 36.7687 10.2015L34.3406 7.71912C34.0594 7.43588 33.7249 7.21108 33.3563 7.05768C32.9878 6.90428 32.5926 6.82531 32.1934 6.82531C31.7943 6.82531 31.399 6.90428 31.0305 7.05768C30.662 7.21108 30.3275 7.43588 30.0462 7.71912L28.651 9.05999C28.5401 9.13103 28.4112 9.16878 28.2795 9.16878C28.1479 9.16878 28.019 9.13103 27.9081 9.05999C27.7987 9.01919 27.7031 8.94813 27.6325 8.85509C27.5619 8.76206 27.5193 8.65088 27.5095 8.53451V6.66817C27.5098 5.87626 27.2015 5.11539 26.6501 4.54704C26.0987 3.97869 25.3475 3.64759 24.5559 3.62402H21.0406C20.2316 3.62401 19.4555 3.94415 18.8817 4.51452C18.3079 5.0849 17.9832 5.85915 17.9784 6.66817V8.64323C17.9784 8.89691 17.7791 9.07811 17.5073 9.18683C17.4074 9.25157 17.291 9.28601 17.1721 9.28601C17.0531 9.28601 16.9367 9.25157 16.8368 9.18683L15.496 7.71912C14.9221 7.14865 14.1488 6.82375 13.3397 6.81312C12.9409 6.8139 12.5463 6.89446 12.1791 7.05005C11.8119 7.20565 11.4795 7.43313 11.2015 7.71912L8.71912 10.1472C8.4276 10.4293 8.19579 10.7672 8.03747 11.1408C7.87916 11.5143 7.79758 11.9159 7.79758 12.3216C7.79758 12.7273 7.87916 13.1288 8.03747 13.5024C8.19579 13.8759 8.4276 14.2138 8.71912 14.496L10.06 15.8368C10.131 15.9477 10.1688 16.0766 10.1688 16.2083C10.1688 16.34 10.131 16.4689 10.06 16.5797C10.0192 16.6892 9.94813 16.7847 9.85509 16.8553C9.76206 16.9259 9.65088 16.9686 9.53451 16.9784H7.66817C6.86081 16.9784 6.08652 17.2991 5.51563 17.87C4.94474 18.4409 4.62402 19.2152 4.62402 20.0225V23.4472C4.62401 24.2562 4.94415 25.0324 5.51452 25.6062C6.0849 26.1799 6.85915 26.5047 7.66817 26.5095H9.64323C9.89691 26.5095 10.0781 26.7088 10.1868 26.9806C10.2516 27.0804 10.286 27.1968 10.286 27.3158C10.286 27.4348 10.2516 27.5512 10.1868 27.651L8.71912 28.9919C8.14865 29.5658 7.82375 30.339 7.81312 31.1481C7.8125 31.5498 7.89235 31.9476 8.04796 32.3179C8.20356 32.6883 8.43177 33.0237 8.71912 33.3044L11.1472 35.7687C11.4284 36.052 11.763 36.2768 12.1315 36.4302C12.5 36.5836 12.8952 36.6625 13.2944 36.6625C13.6936 36.6625 14.0888 36.5836 14.4573 36.4302C14.8258 36.2768 15.1603 36.052 15.4416 35.7687L16.8368 34.4278C16.9477 34.3568 17.0766 34.3191 17.2083 34.3191C17.34 34.3191 17.4689 34.3568 17.5797 34.4278C17.6892 34.4686 17.7847 34.5397 17.8553 34.6327C17.9259 34.7258 17.9686 34.837 17.9784 34.9533V36.9284C18.0066 37.7168 18.3397 38.4634 18.9075 39.011C19.4754 39.5586 20.2337 39.8643 21.0225 39.8638H24.4472C25.2562 39.8638 26.0324 39.5437 26.6062 38.9733C27.1799 38.4029 27.5047 37.6287 27.5095 36.8197V34.8446C27.5095 34.5909 27.7088 34.4097 27.9806 34.301C28.0804 34.2363 28.1968 34.2018 28.3158 34.2018C28.4348 34.2018 28.5512 34.2363 28.651 34.301L30.0281 35.6962C30.602 36.2667 31.3753 36.5916 32.1844 36.6022C32.5832 36.6015 32.9778 36.5209 33.345 36.3653C33.7122 36.2097 34.0446 35.9822 34.3225 35.6962L36.7506 33.2682C37.0338 32.9869 37.2586 32.6524 37.412 32.2839C37.5654 31.9154 37.6444 31.5201 37.6444 31.121C37.6444 30.7218 37.5654 30.3266 37.412 29.9581C37.2586 29.5895 37.0338 29.255 36.7506 28.9738L35.4278 27.651C35.3631 27.5512 35.3287 27.4348 35.3287 27.3158C35.3287 27.1968 35.3631 27.0804 35.4278 26.9806C35.4686 26.8712 35.5397 26.7756 35.6327 26.705C35.7258 26.6344 35.837 26.5917 35.9533 26.5819H37.9284C38.7136 26.5539 39.4576 26.2233 40.0047 25.6593C40.5518 25.0953 40.8596 24.3416 40.8638 23.5559V20.0406C40.8638 19.2316 40.5437 18.4555 39.9733 17.8817C39.4029 17.3079 38.6287 16.9832 37.8197 16.9784ZM22.7439 28.0859C21.4896 28.0859 20.2634 27.7139 19.2205 27.0171C18.1776 26.3202 17.3647 25.3297 16.8847 24.1709C16.4047 23.012 16.2791 21.7369 16.5238 20.5067C16.7685 19.2764 17.3725 18.1464 18.2595 17.2595C19.1464 16.3725 20.2764 15.7685 21.5067 15.5238C22.7369 15.2791 24.012 15.4047 25.1709 15.8847C26.3297 16.3647 27.3202 17.1776 28.0171 18.2205C28.7139 19.2634 29.0859 20.4896 29.0859 21.7439C29.0859 23.4259 28.4177 25.039 27.2284 26.2284C26.039 27.4177 24.4259 28.0859 22.7439 28.0859Z"/>
</mask>
<path d="M37.8197 16.9784H35.8446C35.5909 16.9784 35.4097 16.7791 35.301 16.5073C35.2363 16.4074 35.2018 16.291 35.2018 16.1721C35.2018 16.0531 35.2363 15.9367 35.301 15.8368L36.7687 14.496C37.0564 14.2193 37.2849 13.8872 37.4407 13.5197C37.5964 13.1522 37.676 12.7569 37.6747 12.3578C37.6743 11.9563 37.594 11.5588 37.4385 11.1886C37.2829 10.8184 37.0552 10.4829 36.7687 10.2015L34.3406 7.71912C34.0594 7.43588 33.7249 7.21108 33.3563 7.05768C32.9878 6.90428 32.5926 6.82531 32.1934 6.82531C31.7943 6.82531 31.399 6.90428 31.0305 7.05768C30.662 7.21108 30.3275 7.43588 30.0462 7.71912L28.651 9.05999C28.5401 9.13103 28.4112 9.16878 28.2795 9.16878C28.1479 9.16878 28.019 9.13103 27.9081 9.05999C27.7987 9.01919 27.7031 8.94813 27.6325 8.85509C27.5619 8.76206 27.5193 8.65088 27.5095 8.53451V6.66817C27.5098 5.87626 27.2015 5.11539 26.6501 4.54704C26.0987 3.97869 25.3475 3.64759 24.5559 3.62402H21.0406C20.2316 3.62401 19.4555 3.94415 18.8817 4.51452C18.3079 5.0849 17.9832 5.85915 17.9784 6.66817V8.64323C17.9784 8.89691 17.7791 9.07811 17.5073 9.18683C17.4074 9.25157 17.291 9.28601 17.1721 9.28601C17.0531 9.28601 16.9367 9.25157 16.8368 9.18683L15.496 7.71912C14.9221 7.14865 14.1488 6.82375 13.3397 6.81312C12.9409 6.8139 12.5463 6.89446 12.1791 7.05005C11.8119 7.20565 11.4795 7.43313 11.2015 7.71912L8.71912 10.1472C8.4276 10.4293 8.19579 10.7672 8.03747 11.1408C7.87916 11.5143 7.79758 11.9159 7.79758 12.3216C7.79758 12.7273 7.87916 13.1288 8.03747 13.5024C8.19579 13.8759 8.4276 14.2138 8.71912 14.496L10.06 15.8368C10.131 15.9477 10.1688 16.0766 10.1688 16.2083C10.1688 16.34 10.131 16.4689 10.06 16.5797C10.0192 16.6892 9.94813 16.7847 9.85509 16.8553C9.76206 16.9259 9.65088 16.9686 9.53451 16.9784H7.66817C6.86081 16.9784 6.08652 17.2991 5.51563 17.87C4.94474 18.4409 4.62402 19.2152 4.62402 20.0225V23.4472C4.62401 24.2562 4.94415 25.0324 5.51452 25.6062C6.0849 26.1799 6.85915 26.5047 7.66817 26.5095H9.64323C9.89691 26.5095 10.0781 26.7088 10.1868 26.9806C10.2516 27.0804 10.286 27.1968 10.286 27.3158C10.286 27.4348 10.2516 27.5512 10.1868 27.651L8.71912 28.9919C8.14865 29.5658 7.82375 30.339 7.81312 31.1481C7.8125 31.5498 7.89235 31.9476 8.04796 32.3179C8.20356 32.6883 8.43177 33.0237 8.71912 33.3044L11.1472 35.7687C11.4284 36.052 11.763 36.2768 12.1315 36.4302C12.5 36.5836 12.8952 36.6625 13.2944 36.6625C13.6936 36.6625 14.0888 36.5836 14.4573 36.4302C14.8258 36.2768 15.1603 36.052 15.4416 35.7687L16.8368 34.4278C16.9477 34.3568 17.0766 34.3191 17.2083 34.3191C17.34 34.3191 17.4689 34.3568 17.5797 34.4278C17.6892 34.4686 17.7847 34.5397 17.8553 34.6327C17.9259 34.7258 17.9686 34.837 17.9784 34.9533V36.9284C18.0066 37.7168 18.3397 38.4634 18.9075 39.011C19.4754 39.5586 20.2337 39.8643 21.0225 39.8638H24.4472C25.2562 39.8638 26.0324 39.5437 26.6062 38.9733C27.1799 38.4029 27.5047 37.6287 27.5095 36.8197V34.8446C27.5095 34.5909 27.7088 34.4097 27.9806 34.301C28.0804 34.2363 28.1968 34.2018 28.3158 34.2018C28.4348 34.2018 28.5512 34.2363 28.651 34.301L30.0281 35.6962C30.602 36.2667 31.3753 36.5916 32.1844 36.6022C32.5832 36.6015 32.9778 36.5209 33.345 36.3653C33.7122 36.2097 34.0446 35.9822 34.3225 35.6962L36.7506 33.2682C37.0338 32.9869 37.2586 32.6524 37.412 32.2839C37.5654 31.9154 37.6444 31.5201 37.6444 31.121C37.6444 30.7218 37.5654 30.3266 37.412 29.9581C37.2586 29.5895 37.0338 29.255 36.7506 28.9738L35.4278 27.651C35.3631 27.5512 35.3287 27.4348 35.3287 27.3158C35.3287 27.1968 35.3631 27.0804 35.4278 26.9806C35.4686 26.8712 35.5397 26.7756 35.6327 26.705C35.7258 26.6344 35.837 26.5917 35.9533 26.5819H37.9284C38.7136 26.5539 39.4576 26.2233 40.0047 25.6593C40.5518 25.0953 40.8596 24.3416 40.8638 23.5559V20.0406C40.8638 19.2316 40.5437 18.4555 39.9733 17.8817C39.4029 17.3079 38.6287 16.9832 37.8197 16.9784ZM22.7439 28.0859C21.4896 28.0859 20.2634 27.7139 19.2205 27.0171C18.1776 26.3202 17.3647 25.3297 16.8847 24.1709C16.4047 23.012 16.2791 21.7369 16.5238 20.5067C16.7685 19.2764 17.3725 18.1464 18.2595 17.2595C19.1464 16.3725 20.2764 15.7685 21.5067 15.5238C22.7369 15.2791 24.012 15.4047 25.1709 15.8847C26.3297 16.3647 27.3202 17.1776 28.0171 18.2205C28.7139 19.2634 29.0859 20.4896 29.0859 21.7439C29.0859 23.4259 28.4177 25.039 27.2284 26.2284C26.039 27.4177 24.4259 28.0859 22.7439 28.0859Z" fill="url(#paint1_linear_72_228)" stroke="#363636" stroke-width="4" mask="url(#path-2-inside-1_72_228)"/>
</g>
</g>
</g>
<defs>
<filter id="filter0_d_72_228" x="0.624023" y="3.62402" width="44.2397" height="44.2397" filterUnits="userSpaceOnUse" color-interpolation-filters="sRGB">
<feFlood flood-opacity="0" result="BackgroundImageFix"/>
<feColorMatrix in="SourceAlpha" type="matrix" values="0 0 0 0 0 0 0 0 0 0 0 0 0 0 0 0 0 0 127 0" result="hardAlpha"/>
<feOffset dy="4"/>
<feGaussianBlur stdDeviation="2"/>
<feComposite in2="hardAlpha" operator="out"/>
<feColorMatrix type="matrix" values="0 0 0 0 0 0 0 0 0 0 0 0 0 0 0 0 0 0 0.25 0"/>
<feBlend mode="normal" in2="BackgroundImageFix" result="effect1_dropShadow_72_228"/>
<feBlend mode="normal" in="SourceGraphic" in2="effect1_dropShadow_72_228" result="shape"/>
</filter>
<linearGradient id="paint0_linear_72_228" x1="22.7439" y1="19.0259" x2="22.7439" y2="24.4618" gradientUnits="userSpaceOnUse">
<stop stop-color="#4E4E4E"/>
<stop offset="1" stop-color="#B8B8B8"/>
</linearGradient>
<linearGradient id="paint1_linear_72_228" x1="22.7439" y1="3.62402" x2="22.7439" y2="39.8638" gradientUnits="userSpaceOnUse">
<stop stop-color="#4E4E4E"/>
<stop offset="1" stop-color="#B8B8B8"/>
</linearGradient>
</defs>
</svg>
